<?xml version="1.0" encoding="utf-8"?>
<!-- Generator: Adobe Illustrator 16.0.0, SVG Export Plug-In . SVG Version: 6.00 Build 0)  -->
<!DOCTYPE svg PUBLIC "-//W3C//DTD SVG 1.1//EN" "http://www.w3.org/Graphics/SVG/1.1/DTD/svg11.dtd">
<svg version="1.1" id="Layer_1" xmlns="http://www.w3.org/2000/svg" xmlns:xlink="http://www.w3.org/1999/xlink" x="0px" y="0px"
	 width="2560px" height="1440px" viewBox="0 0 2560 1440" enable-background="new 0 0 2560 1440" xml:space="preserve">
<path fill="#9B6A07" d="M1310,1170h120c0,0-28.14-121.86-28.14-211.86c0-67.109-1.86-448.14-1.86-448.14L1310,1170z"/>
<path fill="#6BC194" d="M1070,1350l60-180h300l60,180c0,0,0,30-30,30s-330,0-360,0S1070,1350,1070,1350z"/>
<g>
	<circle fill="#DD9F05" cx="1280" cy="360" r="300"/>
	<path fill="#DD9F05" d="M1220,1170c0,0,210-570,300-570c-60,150-90,450-180,570H1220z"/>
</g>
<polygon fill="#398E5F" points="1449.979,1230 1430,1170 1130,1170 1110.021,1230 "/>
<g>
	<path fill="#FFC431" d="M1040,420c0-165.69,134.34-300,300-300c67.53,0,129.601,22.62,179.76,60.24
		C1465.04,107.34,1378.13,60,1280,60c-165.66,0-300,134.31-300,300c0,98.13,47.37,185.04,120.24,239.76
		C1062.59,549.6,1040,487.5,1040,420z"/>
	<path fill="#FFC431" d="M950,450c0,0,150,180,180,300s30,180,0,420h180c0,0-40.11-713.97-136.89-665.61
		C1121.87,548.79,1040,570,950,450z"/>
</g>
<g>
	<ellipse fill="#AF7705" cx="1340" cy="472.5" rx="90" ry="112.5"/>
	<path fill="#AF7705" d="M1370,600c73.71,0,124.68-101.76,153.09-180.33L1550,330c0,0-90,180-180,210
		c-71.31,23.76-151.47-95.82-181.74-146.61C1231.91,474.69,1274.36,600,1370,600z"/>
	<path fill="#AF7705" d="M1103.75,373.74c-0.06-0.09-0.09-0.18-0.149-0.271c7.26,29.73,19.829,99.45-19.621,106.32
		c-30.539,0.33-69.629-17.28-103.979-88.98l-29.76,59.49c0.54,0.66,6.45,7.83,15.93,19.83c81.99,95.311,155.88,76.65,204.12,36.51
		C1140.92,441.66,1112.57,389.61,1103.75,373.74z"/>
</g>
<path fill="#FFE5A4" d="M1580,300c-16.59,0-30,13.41-30,30c0,0-60,270-180,270s-156.24-197.49-216.24-257.49l0,0
	c-5.46-7.38-13.83-12.51-23.76-12.51c-16.59,0-30,13.41-30,30c0,2.73,0.87,5.19,1.56,7.68l-0.93,0.45c0,0,0.6,1.05,1.59,2.851
	c0.391,0.989,1.021,1.8,1.53,2.729C1124.271,410.67,1250,642.24,1250,780c0,150-120,390-120,390h90c60-90,390-660,390-840
	C1610,313.41,1596.59,300,1580,300z"/>
<ellipse fill="#FFE5A4" cx="1370" cy="465" rx="60" ry="75"/>
</svg>
